<?xml version="1.0" encoding="utf-8"?>
<!-- Generator: Adobe Illustrator 23.0.3, SVG Export Plug-In . SVG Version: 6.00 Build 0)  -->
<svg version="1.1" id="Layer_1" xmlns="http://www.w3.org/2000/svg" xmlns:xlink="http://www.w3.org/1999/xlink" x="0px" y="0px"
	 viewBox="0 0 326 183" style="enable-background:new 0 0 326 183;" xml:space="preserve">
<style type="text/css">
	.st0{fill:#0093D1;}
	.st1{fill:#FFFFFF;}
</style>
<g>
	<rect x="0" class="st0" width="326" height="183"/>
</g>
<title>FINAL ICON SET</title>
<g id="_34">
	<g id="_6">
		<path class="st1" d="M204.4,123.8h-82.6c-4.3-0.1-7.9-3.7-7.9-8V61.8c0-4.3,3.6-7.9,7.9-8h64.9l0,0c0.7,0,1.1,0.4,1.1,1.1
			s-0.4,1.1-1.1,1.1h-64.9c-3.1,0.1-5.7,2.7-5.7,5.8v54.1c0,3.1,2.4,5.8,5.7,5.8h82.6c3.1-0.1,5.6-2.7,5.6-5.8V61.8
			c0-3.1-2.4-5.7-5.6-5.8h-2.1c-0.7,0-1.1-0.4-1.1-1.1s0.4-1.1,1.1-1.1h2.1c4.3,0.1,7.8,3.7,7.8,8v54.1
			C212.1,120.2,208.7,123.7,204.4,123.8z"/>
		<path class="st1" d="M164.7,141.5c-0.7,0-1.1-0.4-1.1-1.1v-17.7c0-0.7,0.4-1.1,1.1-1.1s1.1,0.4,1.1,1.1v17.7
			C165.8,141.1,165.3,141.5,164.7,141.5z"/>
		<path class="st1" d="M186.8,141.5h-45.3c-0.7,0-1.1-0.4-1.1-1.1s0.4-1.1,1.1-1.1h45.3c0.7,0,1.1,0.4,1.1,1.1
			S187.4,141.5,186.8,141.5z"/>
		<path class="st1" d="M211.1,106H115c-0.7,0-1.1-0.4-1.1-1.1s0.4-1.1,1.1-1.1H211c0.7,0,1.1,0.4,1.1,1.1S211.7,106,211.1,106z"/>
	</g>
	<path class="st1" d="M184,80.2c-1.3,0-2.7-0.4-3.7-1.2c-6.2-4.2-1.9-11,3.1-18.9c0.7-1.1,1.4-2.2,2.1-3.4
		c5.7-9.2,13.7-17.2,17.7-14.7l0,0c4.1,2.6,0.4,13.1-5.2,22.3c-0.8,1.3-1.6,2.6-2.3,3.8c-3.7,6.2-6.7,11-10.4,11.9
		C184.8,80.1,184.5,80.2,184,80.2z M201.5,43.8c-2.3,0-8.3,4.9-14,14c-0.8,1.2-1.4,2.3-2.1,3.4c-5.4,8.4-8,13-3.8,15.9
		c0.9,0.7,2.1,1,3.2,0.8c3-0.7,5.8-5.4,9.1-10.9c0.8-1.2,1.6-2.6,2.3-3.8c6.3-10.1,7.8-18.1,6-19.2
		C201.9,43.8,201.7,43.8,201.5,43.8z"/>
	<path class="st1" d="M170.9,95.7c-2.9,0-5.7-0.9-8.1-2.4c-0.4-0.2-0.7-0.8-0.6-1.2s0.6-0.8,1.1-0.9c1.9-0.2,3.8-3,5.2-7.7
		c0.7-2.4,2.4-4.4,4.9-5.4c2.2-0.8,4.6-0.6,6.6,0.8l0,0c3.7,2.2,4.2,6.8,1.3,11.6c-1.6,2.6-4.1,4.4-7.1,5.1
		C173.2,95.6,172.1,95.9,170.9,95.7z M165.9,92.4c2.4,1.1,5.1,1.3,7.7,0.8c2.3-0.6,4.4-2,5.8-4.1c1.7-2.9,2.4-6.7-0.6-8.6
		c-1.3-0.9-3.1-1.1-4.6-0.6c-1.8,0.8-3,2.2-3.6,4C169.4,88.3,167.8,91.2,165.9,92.4L165.9,92.4z"/>
	<path class="st1" d="M156.5,87.4c-0.1,0-0.2,0-0.3,0c-0.2-0.1-6.4-2.1-7.4-6.2c-0.7-2.8,0.4-5.9,2.3-7.2c1.3-0.9,3.1-0.8,4.3,0.3
		c2.1,1.6,1.6,4.1,1,6.3c-0.6,2.7-0.7,4,0.7,4.8c0.4,0.3,0.7,1,0.2,1.6C157.2,87.2,156.8,87.4,156.5,87.4z M153.1,75.6
		c-0.2,0-0.4,0.1-0.7,0.2c-1.3,1.2-1.9,3.1-1.4,4.8c0.6,1.4,1.6,2.6,2.9,3.2c0-1.3,0.1-2.6,0.4-3.8c0.4-2.1,0.7-3.4-0.2-4
		C153.8,75.7,153.5,75.6,153.1,75.6z"/>
	<path class="st1" d="M155.8,95.9c-2.4,0-4.1-1.1-4.1-2.6s1.8-2.6,4.1-2.6s4.1,1.1,4.1,2.6S158.3,95.9,155.8,95.9z M154.2,93.3
		c1.1,0.4,2.2,0.4,3.3,0C156.4,92.9,155.3,92.9,154.2,93.3z M157.8,93.5L157.8,93.5z"/>
</g>
</svg>
